<mxfile host="app.diagrams.net" modified="2024-02-22T14:49:31.793Z" agent="Mozilla/5.0 (Macintosh; Intel Mac OS X 10.15; rv:122.0) Gecko/20100101 Firefox/122.0" etag="RxW5Z9ODKNKSRh0Tpv4V" version="23.1.5" type="device">
  <diagram name="Page-1" id="LnfI6y9uAsMeLBiGhCIF">
    <mxGraphModel dx="1072" dy="973" grid="1" gridSize="10" guides="1" tooltips="1" connect="1" arrows="1" fold="1" page="1" pageScale="1" pageWidth="850" pageHeight="1100" math="0" shadow="0">
      <root>
        <mxCell id="0" />
        <mxCell id="1" parent="0" />
        <mxCell id="FEZ-26H3Mb8yyC3y7fx9-3" style="edgeStyle=orthogonalEdgeStyle;rounded=0;orthogonalLoop=1;jettySize=auto;html=1;strokeWidth=2;" edge="1" parent="1" source="FEZ-26H3Mb8yyC3y7fx9-1" target="FEZ-26H3Mb8yyC3y7fx9-2">
          <mxGeometry relative="1" as="geometry" />
        </mxCell>
        <mxCell id="FEZ-26H3Mb8yyC3y7fx9-1" value="1" style="ellipse;whiteSpace=wrap;html=1;aspect=fixed;strokeWidth=2;" vertex="1" parent="1">
          <mxGeometry x="360" y="520" width="40" height="40" as="geometry" />
        </mxCell>
        <mxCell id="FEZ-26H3Mb8yyC3y7fx9-5" style="edgeStyle=orthogonalEdgeStyle;rounded=0;orthogonalLoop=1;jettySize=auto;html=1;strokeColor=default;strokeWidth=2;align=center;verticalAlign=middle;fontFamily=Helvetica;fontSize=11;fontColor=default;labelBackgroundColor=default;endArrow=classic;" edge="1" parent="1" source="FEZ-26H3Mb8yyC3y7fx9-2" target="FEZ-26H3Mb8yyC3y7fx9-4">
          <mxGeometry relative="1" as="geometry" />
        </mxCell>
        <mxCell id="FEZ-26H3Mb8yyC3y7fx9-2" value="2" style="ellipse;whiteSpace=wrap;html=1;aspect=fixed;strokeWidth=2;" vertex="1" parent="1">
          <mxGeometry x="440" y="520" width="40" height="40" as="geometry" />
        </mxCell>
        <mxCell id="FEZ-26H3Mb8yyC3y7fx9-7" style="edgeStyle=orthogonalEdgeStyle;rounded=0;orthogonalLoop=1;jettySize=auto;html=1;strokeColor=default;strokeWidth=2;align=center;verticalAlign=middle;fontFamily=Helvetica;fontSize=12;fontColor=default;labelBackgroundColor=default;endArrow=classic;" edge="1" parent="1" source="FEZ-26H3Mb8yyC3y7fx9-4" target="FEZ-26H3Mb8yyC3y7fx9-6">
          <mxGeometry relative="1" as="geometry" />
        </mxCell>
        <mxCell id="FEZ-26H3Mb8yyC3y7fx9-4" value="3" style="ellipse;whiteSpace=wrap;html=1;aspect=fixed;strokeWidth=2;" vertex="1" parent="1">
          <mxGeometry x="520" y="520" width="40" height="40" as="geometry" />
        </mxCell>
        <mxCell id="FEZ-26H3Mb8yyC3y7fx9-9" style="edgeStyle=orthogonalEdgeStyle;rounded=0;orthogonalLoop=1;jettySize=auto;html=1;strokeColor=default;strokeWidth=2;align=center;verticalAlign=middle;fontFamily=Helvetica;fontSize=12;fontColor=default;labelBackgroundColor=default;endArrow=classic;" edge="1" parent="1" source="FEZ-26H3Mb8yyC3y7fx9-6" target="FEZ-26H3Mb8yyC3y7fx9-12">
          <mxGeometry relative="1" as="geometry">
            <mxPoint x="680" y="540" as="targetPoint" />
          </mxGeometry>
        </mxCell>
        <mxCell id="FEZ-26H3Mb8yyC3y7fx9-6" value="4" style="ellipse;whiteSpace=wrap;html=1;aspect=fixed;strokeWidth=2;strokeColor=default;align=center;verticalAlign=middle;fontFamily=Helvetica;fontSize=12;fontColor=default;fillColor=default;" vertex="1" parent="1">
          <mxGeometry x="600" y="520" width="40" height="40" as="geometry" />
        </mxCell>
        <mxCell id="FEZ-26H3Mb8yyC3y7fx9-12" value="" style="verticalLabelPosition=bottom;verticalAlign=top;html=1;shape=mxgraph.basic.x;strokeColor=default;strokeWidth=2;align=center;fontFamily=Helvetica;fontSize=12;fontColor=default;fillColor=default;" vertex="1" parent="1">
          <mxGeometry x="680" y="532.5" width="20" height="15" as="geometry" />
        </mxCell>
        <mxCell id="FEZ-26H3Mb8yyC3y7fx9-16" style="edgeStyle=orthogonalEdgeStyle;rounded=0;orthogonalLoop=1;jettySize=auto;html=1;strokeWidth=2;" edge="1" parent="1" source="FEZ-26H3Mb8yyC3y7fx9-17" target="FEZ-26H3Mb8yyC3y7fx9-19">
          <mxGeometry relative="1" as="geometry" />
        </mxCell>
        <mxCell id="FEZ-26H3Mb8yyC3y7fx9-17" value="1" style="ellipse;whiteSpace=wrap;html=1;aspect=fixed;strokeWidth=2;" vertex="1" parent="1">
          <mxGeometry x="360" y="600" width="40" height="40" as="geometry" />
        </mxCell>
        <mxCell id="FEZ-26H3Mb8yyC3y7fx9-18" style="edgeStyle=orthogonalEdgeStyle;rounded=0;orthogonalLoop=1;jettySize=auto;html=1;strokeColor=default;strokeWidth=2;align=center;verticalAlign=middle;fontFamily=Helvetica;fontSize=11;fontColor=default;labelBackgroundColor=default;endArrow=classic;" edge="1" parent="1" source="FEZ-26H3Mb8yyC3y7fx9-19">
          <mxGeometry relative="1" as="geometry">
            <mxPoint x="520" y="620" as="targetPoint" />
          </mxGeometry>
        </mxCell>
        <mxCell id="FEZ-26H3Mb8yyC3y7fx9-19" value="2" style="ellipse;whiteSpace=wrap;html=1;aspect=fixed;strokeWidth=2;" vertex="1" parent="1">
          <mxGeometry x="440" y="600" width="40" height="40" as="geometry" />
        </mxCell>
        <mxCell id="FEZ-26H3Mb8yyC3y7fx9-20" style="edgeStyle=orthogonalEdgeStyle;rounded=0;orthogonalLoop=1;jettySize=auto;html=1;strokeColor=default;strokeWidth=2;align=center;verticalAlign=middle;fontFamily=Helvetica;fontSize=12;fontColor=default;labelBackgroundColor=default;endArrow=classic;" edge="1" parent="1" target="FEZ-26H3Mb8yyC3y7fx9-23">
          <mxGeometry relative="1" as="geometry">
            <mxPoint x="560" y="620" as="sourcePoint" />
          </mxGeometry>
        </mxCell>
        <mxCell id="FEZ-26H3Mb8yyC3y7fx9-24" value="" style="verticalLabelPosition=bottom;verticalAlign=top;html=1;shape=mxgraph.basic.x;strokeColor=default;strokeWidth=2;align=center;fontFamily=Helvetica;fontSize=12;fontColor=default;fillColor=default;" vertex="1" parent="1">
          <mxGeometry x="520" y="612.5" width="20" height="15" as="geometry" />
        </mxCell>
        <mxCell id="FEZ-26H3Mb8yyC3y7fx9-29" value="1" style="ellipse;whiteSpace=wrap;html=1;aspect=fixed;strokeWidth=2;" vertex="1" parent="1">
          <mxGeometry x="360" y="680" width="40" height="40" as="geometry" />
        </mxCell>
        <mxCell id="FEZ-26H3Mb8yyC3y7fx9-33" value="" style="edgeStyle=orthogonalEdgeStyle;rounded=0;orthogonalLoop=1;jettySize=auto;html=1;strokeColor=default;strokeWidth=2;align=center;verticalAlign=middle;fontFamily=Helvetica;fontSize=11;fontColor=default;labelBackgroundColor=default;endArrow=classic;" edge="1" parent="1" source="FEZ-26H3Mb8yyC3y7fx9-29" target="FEZ-26H3Mb8yyC3y7fx9-32">
          <mxGeometry relative="1" as="geometry">
            <mxPoint x="520" y="700" as="targetPoint" />
            <mxPoint x="400" y="700" as="sourcePoint" />
          </mxGeometry>
        </mxCell>
        <mxCell id="FEZ-26H3Mb8yyC3y7fx9-32" value="" style="verticalLabelPosition=bottom;verticalAlign=top;html=1;shape=mxgraph.basic.x;strokeColor=default;strokeWidth=2;align=center;fontFamily=Helvetica;fontSize=12;fontColor=default;fillColor=default;" vertex="1" parent="1">
          <mxGeometry x="440" y="692.5" width="20" height="15" as="geometry" />
        </mxCell>
        <mxCell id="FEZ-26H3Mb8yyC3y7fx9-34" value="" style="verticalLabelPosition=bottom;verticalAlign=top;html=1;shape=mxgraph.basic.x;strokeColor=default;strokeWidth=2;align=center;fontFamily=Helvetica;fontSize=12;fontColor=default;fillColor=default;" vertex="1" parent="1">
          <mxGeometry x="370" y="770" width="20" height="15" as="geometry" />
        </mxCell>
        <mxCell id="FEZ-26H3Mb8yyC3y7fx9-35" value="Case A:" style="text;html=1;align=center;verticalAlign=middle;resizable=0;points=[];autosize=1;strokeColor=none;fillColor=none;fontFamily=Helvetica;fontSize=12;fontColor=default;" vertex="1" parent="1">
          <mxGeometry x="270" y="525" width="70" height="30" as="geometry" />
        </mxCell>
        <mxCell id="FEZ-26H3Mb8yyC3y7fx9-36" value="Case B:" style="text;html=1;align=center;verticalAlign=middle;resizable=0;points=[];autosize=1;strokeColor=none;fillColor=none;fontFamily=Helvetica;fontSize=12;fontColor=default;" vertex="1" parent="1">
          <mxGeometry x="270" y="605" width="70" height="30" as="geometry" />
        </mxCell>
        <mxCell id="FEZ-26H3Mb8yyC3y7fx9-37" value="Case C:" style="text;html=1;align=center;verticalAlign=middle;resizable=0;points=[];autosize=1;strokeColor=none;fillColor=none;fontFamily=Helvetica;fontSize=12;fontColor=default;" vertex="1" parent="1">
          <mxGeometry x="270" y="685" width="70" height="30" as="geometry" />
        </mxCell>
        <mxCell id="FEZ-26H3Mb8yyC3y7fx9-38" value="Case D:" style="text;html=1;align=center;verticalAlign=middle;resizable=0;points=[];autosize=1;strokeColor=none;fillColor=none;fontFamily=Helvetica;fontSize=12;fontColor=default;" vertex="1" parent="1">
          <mxGeometry x="270" y="762.5" width="70" height="30" as="geometry" />
        </mxCell>
        <mxCell id="FEZ-26H3Mb8yyC3y7fx9-39" style="edgeStyle=orthogonalEdgeStyle;rounded=0;orthogonalLoop=1;jettySize=auto;html=1;strokeWidth=2;" edge="1" parent="1" source="FEZ-26H3Mb8yyC3y7fx9-40" target="FEZ-26H3Mb8yyC3y7fx9-42">
          <mxGeometry relative="1" as="geometry" />
        </mxCell>
        <mxCell id="FEZ-26H3Mb8yyC3y7fx9-40" value="1" style="ellipse;whiteSpace=wrap;html=1;aspect=fixed;strokeWidth=2;" vertex="1" parent="1">
          <mxGeometry x="360" y="920" width="40" height="40" as="geometry" />
        </mxCell>
        <mxCell id="FEZ-26H3Mb8yyC3y7fx9-41" style="edgeStyle=orthogonalEdgeStyle;rounded=0;orthogonalLoop=1;jettySize=auto;html=1;strokeColor=default;strokeWidth=2;align=center;verticalAlign=middle;fontFamily=Helvetica;fontSize=11;fontColor=default;labelBackgroundColor=default;endArrow=classic;" edge="1" parent="1" source="FEZ-26H3Mb8yyC3y7fx9-42" target="FEZ-26H3Mb8yyC3y7fx9-44">
          <mxGeometry relative="1" as="geometry" />
        </mxCell>
        <mxCell id="FEZ-26H3Mb8yyC3y7fx9-42" value="2" style="ellipse;whiteSpace=wrap;html=1;aspect=fixed;strokeWidth=2;" vertex="1" parent="1">
          <mxGeometry x="440" y="920" width="40" height="40" as="geometry" />
        </mxCell>
        <mxCell id="FEZ-26H3Mb8yyC3y7fx9-43" style="edgeStyle=orthogonalEdgeStyle;rounded=0;orthogonalLoop=1;jettySize=auto;html=1;strokeColor=default;strokeWidth=2;align=center;verticalAlign=middle;fontFamily=Helvetica;fontSize=12;fontColor=default;labelBackgroundColor=default;endArrow=classic;" edge="1" parent="1" source="FEZ-26H3Mb8yyC3y7fx9-44" target="FEZ-26H3Mb8yyC3y7fx9-46">
          <mxGeometry relative="1" as="geometry" />
        </mxCell>
        <mxCell id="FEZ-26H3Mb8yyC3y7fx9-44" value="3" style="ellipse;whiteSpace=wrap;html=1;aspect=fixed;strokeWidth=2;" vertex="1" parent="1">
          <mxGeometry x="520" y="920" width="40" height="40" as="geometry" />
        </mxCell>
        <mxCell id="FEZ-26H3Mb8yyC3y7fx9-45" style="edgeStyle=orthogonalEdgeStyle;rounded=0;orthogonalLoop=1;jettySize=auto;html=1;strokeColor=default;strokeWidth=2;align=center;verticalAlign=middle;fontFamily=Helvetica;fontSize=12;fontColor=default;labelBackgroundColor=default;endArrow=classic;" edge="1" parent="1" source="FEZ-26H3Mb8yyC3y7fx9-46" target="FEZ-26H3Mb8yyC3y7fx9-58">
          <mxGeometry relative="1" as="geometry">
            <mxPoint x="670" y="960" as="targetPoint" />
          </mxGeometry>
        </mxCell>
        <mxCell id="FEZ-26H3Mb8yyC3y7fx9-46" value="4" style="ellipse;whiteSpace=wrap;html=1;aspect=fixed;strokeWidth=2;strokeColor=default;align=center;verticalAlign=middle;fontFamily=Helvetica;fontSize=12;fontColor=default;fillColor=default;" vertex="1" parent="1">
          <mxGeometry x="600" y="920" width="40" height="40" as="geometry" />
        </mxCell>
        <mxCell id="FEZ-26H3Mb8yyC3y7fx9-47" value="" style="verticalLabelPosition=bottom;verticalAlign=top;html=1;shape=mxgraph.basic.x;strokeColor=default;strokeWidth=2;align=center;fontFamily=Helvetica;fontSize=12;fontColor=default;fillColor=default;" vertex="1" parent="1">
          <mxGeometry x="760" y="932.5" width="20" height="15" as="geometry" />
        </mxCell>
        <mxCell id="FEZ-26H3Mb8yyC3y7fx9-53" value="1" style="ellipse;whiteSpace=wrap;html=1;aspect=fixed;strokeWidth=2;" vertex="1" parent="1">
          <mxGeometry x="360" y="1040" width="40" height="40" as="geometry" />
        </mxCell>
        <mxCell id="FEZ-26H3Mb8yyC3y7fx9-54" value="" style="edgeStyle=orthogonalEdgeStyle;rounded=0;orthogonalLoop=1;jettySize=auto;html=1;strokeColor=default;strokeWidth=2;align=center;verticalAlign=middle;fontFamily=Helvetica;fontSize=11;fontColor=default;labelBackgroundColor=default;endArrow=classic;" edge="1" parent="1" source="FEZ-26H3Mb8yyC3y7fx9-53" target="FEZ-26H3Mb8yyC3y7fx9-55">
          <mxGeometry relative="1" as="geometry">
            <mxPoint x="520" y="1060" as="targetPoint" />
            <mxPoint x="400" y="1060" as="sourcePoint" />
          </mxGeometry>
        </mxCell>
        <mxCell id="FEZ-26H3Mb8yyC3y7fx9-55" value="" style="verticalLabelPosition=bottom;verticalAlign=top;html=1;shape=mxgraph.basic.x;strokeColor=default;strokeWidth=2;align=center;fontFamily=Helvetica;fontSize=12;fontColor=default;fillColor=default;" vertex="1" parent="1">
          <mxGeometry x="440" y="1052.5" width="20" height="15" as="geometry" />
        </mxCell>
        <mxCell id="FEZ-26H3Mb8yyC3y7fx9-56" value="" style="verticalLabelPosition=bottom;verticalAlign=top;html=1;shape=mxgraph.basic.x;strokeColor=default;strokeWidth=2;align=center;fontFamily=Helvetica;fontSize=12;fontColor=default;fillColor=default;" vertex="1" parent="1">
          <mxGeometry x="370" y="1140" width="20" height="15" as="geometry" />
        </mxCell>
        <mxCell id="FEZ-26H3Mb8yyC3y7fx9-57" value="&lt;div&gt;delete 3, delete 5, delete 1, delete 6&lt;/div&gt;" style="text;html=1;align=center;verticalAlign=middle;resizable=0;points=[];autosize=1;strokeColor=none;fillColor=none;fontFamily=Helvetica;fontSize=12;fontColor=default;" vertex="1" parent="1">
          <mxGeometry x="360" y="960" width="210" height="30" as="geometry" />
        </mxCell>
        <mxCell id="FEZ-26H3Mb8yyC3y7fx9-58" value="5" style="ellipse;whiteSpace=wrap;html=1;aspect=fixed;strokeWidth=2;strokeColor=default;align=center;verticalAlign=middle;fontFamily=Helvetica;fontSize=12;fontColor=default;fillColor=default;" vertex="1" parent="1">
          <mxGeometry x="680" y="920" width="40" height="40" as="geometry" />
        </mxCell>
        <mxCell id="FEZ-26H3Mb8yyC3y7fx9-60" style="edgeStyle=orthogonalEdgeStyle;rounded=0;orthogonalLoop=1;jettySize=auto;html=1;entryX=0.1;entryY=0.5;entryDx=0;entryDy=0;entryPerimeter=0;strokeColor=default;strokeWidth=2;align=center;verticalAlign=middle;fontFamily=Helvetica;fontSize=12;fontColor=default;labelBackgroundColor=default;endArrow=classic;" edge="1" parent="1" source="FEZ-26H3Mb8yyC3y7fx9-58" target="FEZ-26H3Mb8yyC3y7fx9-47">
          <mxGeometry relative="1" as="geometry" />
        </mxCell>
        <mxCell id="FEZ-26H3Mb8yyC3y7fx9-61" value="delete 1, delete 2" style="text;html=1;align=center;verticalAlign=middle;resizable=0;points=[];autosize=1;strokeColor=none;fillColor=none;fontFamily=Helvetica;fontSize=12;fontColor=default;" vertex="1" parent="1">
          <mxGeometry x="360" y="1080" width="120" height="30" as="geometry" />
        </mxCell>
        <mxCell id="FEZ-26H3Mb8yyC3y7fx9-62" value="delete 1 " style="text;html=1;align=center;verticalAlign=middle;resizable=0;points=[];autosize=1;strokeColor=none;fillColor=none;fontFamily=Helvetica;fontSize=12;fontColor=default;" vertex="1" parent="1">
          <mxGeometry x="360" y="1160" width="70" height="30" as="geometry" />
        </mxCell>
        <mxCell id="FEZ-26H3Mb8yyC3y7fx9-63" value="&lt;font style=&quot;font-size: 16px;&quot;&gt;Test cases for &quot;delete value from linked list&quot;&lt;/font&gt;" style="text;html=1;align=center;verticalAlign=middle;resizable=0;points=[];autosize=1;strokeColor=none;fillColor=none;fontFamily=Helvetica;fontSize=12;fontColor=default;" vertex="1" parent="1">
          <mxGeometry x="270" y="880" width="330" height="30" as="geometry" />
        </mxCell>
        <mxCell id="FEZ-26H3Mb8yyC3y7fx9-64" value="&lt;font style=&quot;font-size: 16px;&quot;&gt;General test cases&lt;br&gt;&lt;/font&gt;" style="text;html=1;align=center;verticalAlign=middle;resizable=0;points=[];autosize=1;strokeColor=none;fillColor=none;fontFamily=Helvetica;fontSize=12;fontColor=default;" vertex="1" parent="1">
          <mxGeometry x="265" y="480" width="160" height="30" as="geometry" />
        </mxCell>
      </root>
    </mxGraphModel>
  </diagram>
</mxfile>
